<svg width="200" height="220" viewBox="0 0 200 220" fill="none" xmlns="http://www.w3.org/2000/svg">
<g clip-path="url(#clip0_37_160)">
<g clip-path="url(#clip1_37_160)">
<path d="M8.66539 168L100 9.99112L191.335 168H102.309H8.66539Z" stroke="white" stroke-width="10"/>
<circle cx="100" cy="37" r="2" fill="white"/>
<path d="M36 145L43 157H36H29L36 145Z" fill="white"/>
<path d="M137.5 137L149 157H137.5H126L137.5 137Z" fill="white"/>
<path d="M62.5 137L74 157H62.5H51L62.5 137Z" fill="white"/>
<path d="M164 145L171 157H164H157L164 145Z" fill="white"/>
<circle cx="114" cy="65" r="2" fill="white"/>
<circle cx="86" cy="65" r="2" fill="white"/>
<circle cx="78" cy="79" r="2" fill="white"/>
<circle cx="122" cy="79" r="2" fill="white"/>
<path fill-rule="evenodd" clip-rule="evenodd" d="M100 61L120 95L104 125H96L80 95L100 61ZM100 95C96.134 95 93 91.866 93 88C93 84.134 96.134 81 100 81C103.866 81 107 84.134 107 88C107 91.866 103.866 95 100 95Z" fill="white"/>
<path d="M82.5 114L89 125H76L82.5 114Z" fill="white"/>
<path d="M117.5 114L124 125H111L117.5 114Z" fill="white"/>
<path fill-rule="evenodd" clip-rule="evenodd" d="M109.623 130H88.6876C88.1011 132.178 87.1432 133.837 86 134.576V136H113V134.902C111.555 134.465 110.324 132.603 109.623 130Z" fill="white"/>
<rect x="97" y="136" width="6" height="16" fill="white"/>
<rect x="108" y="136" width="5" height="9" fill="white"/>
<rect x="86" y="136" width="5" height="9" fill="white"/>
<path d="M86.0003 150L86.0003 145L91.0002 145L86.0003 150Z" fill="white"/>
<path d="M113 150L108 145L113 145L113 150Z" fill="white"/>
<circle cx="100" cy="152" r="3" fill="white"/>
<rect x="89" y="49" width="22" height="4" rx="2" fill="white"/>
<rect x="124" y="105" width="18" height="4" rx="2" fill="white"/>
<rect x="150" y="140" width="6" height="4" rx="2" fill="white"/>
<rect x="44" y="140" width="6" height="4" rx="2" fill="white"/>
<circle cx="131" cy="93" r="2" fill="white"/>
<circle cx="69" cy="93" r="2" fill="white"/>
<circle cx="60" cy="121" r="2" fill="white"/>
<circle cx="140" cy="121" r="2" fill="white"/>
<rect x="57" y="105" width="18" height="4" rx="2" fill="white"/>
<path d="M8.66539 168L100 9.99112L191.335 168H102.309H8.66539Z" stroke="white" stroke-width="10"/>
<circle cx="100" cy="37" r="2" fill="white"/>
<path d="M36 145L43 157H36H29L36 145Z" fill="white"/>
<path d="M137.5 137L149 157H137.5H126L137.5 137Z" fill="white"/>
<path d="M62.5 137L74 157H62.5H51L62.5 137Z" fill="white"/>
<path d="M164 145L171 157H164H157L164 145Z" fill="white"/>
<circle cx="114" cy="65" r="2" fill="white"/>
<circle cx="86" cy="65" r="2" fill="white"/>
<circle cx="78" cy="79" r="2" fill="white"/>
<circle cx="122" cy="79" r="2" fill="white"/>
<path fill-rule="evenodd" clip-rule="evenodd" d="M100 61L120 95L104 125H96L80 95L100 61ZM100 95C96.134 95 93 91.866 93 88C93 84.134 96.134 81 100 81C103.866 81 107 84.134 107 88C107 91.866 103.866 95 100 95Z" fill="white"/>
<path d="M82.5 114L89 125H76L82.5 114Z" fill="white"/>
<path d="M117.5 114L124 125H111L117.5 114Z" fill="white"/>
<path fill-rule="evenodd" clip-rule="evenodd" d="M109.623 130H88.6876C88.1011 132.178 87.1432 133.837 86 134.576V136H113V134.902C111.555 134.465 110.324 132.603 109.623 130Z" fill="white"/>
<rect x="97" y="136" width="6" height="16" fill="white"/>
<rect x="108" y="136" width="5" height="9" fill="white"/>
<rect x="86" y="136" width="5" height="9" fill="white"/>
<path d="M86.0003 150L86.0003 145L91.0002 145L86.0003 150Z" fill="white"/>
<path d="M113 150L108 145L113 145L113 150Z" fill="white"/>
<circle cx="100" cy="152" r="3" fill="white"/>
<rect x="89" y="49" width="22" height="4" rx="2" fill="white"/>
<rect x="124" y="105" width="18" height="4" rx="2" fill="white"/>
<rect x="150" y="140" width="6" height="4" rx="2" fill="white"/>
<rect x="44" y="140" width="6" height="4" rx="2" fill="white"/>
<circle cx="131" cy="93" r="2" fill="white"/>
<circle cx="69" cy="93" r="2" fill="white"/>
<circle cx="60" cy="121" r="2" fill="white"/>
<circle cx="140" cy="121" r="2" fill="white"/>
<rect x="57" y="105" width="18" height="4" rx="2" fill="white"/>
</g>
<path fill-rule="evenodd" clip-rule="evenodd" d="M200 173H0V210C0 215.523 4.47716 220 10 220H190C195.523 220 200 215.523 200 210V173ZM28.6488 200L32.4918 185.258H28.6278L26.4858 195.989L23.9658 185.258H20.0178L17.3928 195.989L15.2718 185.258H11.4288L15.1668 200H19.5138L21.9498 190.298L24.3018 200H28.6488ZM37.8837 191.117V188.135H43.3227V185.258H34.2927V200H43.3227V197.123H37.8837V193.889H42.6927V191.117H37.8837ZM52.8972 200L53.7792 197.396H59.2812L60.1632 200H63.9642L58.6302 185.258H54.4722L49.1382 200H52.8972ZM56.5302 189.227L58.3572 194.624H54.7242L56.5302 189.227ZM70.0396 194.435L73.1056 200H77.1586L73.7566 194.162C74.8346 193.84 75.6466 193.294 76.1926 192.524C76.7526 191.754 77.0326 190.879 77.0326 189.899C77.0326 189.031 76.8296 188.247 76.4236 187.547C76.0176 186.833 75.4016 186.273 74.5756 185.867C73.7636 185.461 72.7766 185.258 71.6146 185.258H65.5876V200H69.1786V194.435H70.0396ZM71.4046 191.894H69.1786V188.24H71.4046C72.0626 188.24 72.5526 188.401 72.8746 188.723C73.2106 189.045 73.3786 189.486 73.3786 190.046C73.3786 190.634 73.2106 191.089 72.8746 191.411C72.5526 191.733 72.0626 191.894 71.4046 191.894ZM82.8779 191.117V188.135H88.3169V185.258H79.2869V200H88.3169V197.123H82.8779V193.889H87.6869V191.117H82.8779ZM98.6894 200V185.258H95.0984V200H98.6894ZM110.889 200H114.48V185.258H110.889V194.393L104.883 185.258H101.292V200H104.883V190.907L110.889 200ZM123.969 199.622C124.823 199.972 125.789 200.147 126.867 200.147C127.973 200.147 128.932 199.944 129.744 199.538C130.556 199.132 131.172 198.586 131.592 197.9C132.026 197.214 132.243 196.451 132.243 195.611C132.243 194.729 132.026 194.008 131.592 193.448C131.158 192.888 130.64 192.461 130.038 192.167C129.45 191.873 128.68 191.565 127.728 191.243C126.776 190.935 126.076 190.648 125.628 190.382C125.18 190.116 124.956 189.745 124.956 189.269C124.956 188.835 125.089 188.506 125.355 188.282C125.621 188.044 125.971 187.925 126.405 187.925C126.909 187.925 127.322 188.065 127.644 188.345C127.966 188.611 128.141 188.982 128.169 189.458H132.054C131.984 188.072 131.452 186.994 130.458 186.224C129.464 185.44 128.155 185.048 126.531 185.048C124.935 185.048 123.64 185.44 122.646 186.224C121.652 186.994 121.155 188.065 121.155 189.437C121.155 190.361 121.372 191.11 121.806 191.684C122.24 192.258 122.758 192.692 123.36 192.986C123.962 193.28 124.739 193.574 125.691 193.868C126.349 194.064 126.853 194.239 127.203 194.393C127.567 194.547 127.868 194.743 128.106 194.981C128.358 195.219 128.484 195.52 128.484 195.884C128.484 196.318 128.33 196.661 128.022 196.913C127.714 197.151 127.294 197.27 126.762 197.27C126.244 197.27 125.824 197.13 125.502 196.85C125.18 196.556 124.991 196.136 124.935 195.59H121.113C121.141 196.556 121.407 197.382 121.911 198.068C122.429 198.754 123.115 199.272 123.969 199.622ZM145.1 192.356C145.492 191.642 145.688 190.858 145.688 190.004C145.688 189.08 145.485 188.261 145.079 187.547C144.673 186.833 144.064 186.273 143.252 185.867C142.44 185.461 141.446 185.258 140.27 185.258H134.453V200H138.044V194.708H140.27C141.474 194.708 142.482 194.491 143.294 194.057C144.106 193.623 144.708 193.056 145.1 192.356ZM141.53 191.369C141.194 191.691 140.683 191.852 139.997 191.852H138.044V188.156H139.997C140.683 188.156 141.194 188.317 141.53 188.639C141.866 188.961 142.034 189.416 142.034 190.004C142.034 190.592 141.866 191.047 141.53 191.369ZM150.35 200L151.232 197.396H156.734L157.616 200H161.417L156.083 185.258H151.925L146.591 200H150.35ZM153.983 189.227L155.81 194.624H152.177L153.983 189.227ZM163.377 188.723C162.747 189.857 162.432 191.152 162.432 192.608C162.432 194.064 162.747 195.359 163.377 196.493C164.007 197.627 164.882 198.516 166.002 199.16C167.136 199.79 168.417 200.105 169.845 200.105C171.595 200.105 173.093 199.65 174.339 198.74C175.585 197.816 176.418 196.556 176.838 194.96H172.89C172.596 195.576 172.176 196.045 171.63 196.367C171.098 196.689 170.489 196.85 169.803 196.85C168.697 196.85 167.801 196.465 167.115 195.695C166.429 194.925 166.086 193.896 166.086 192.608C166.086 191.32 166.429 190.291 167.115 189.521C167.801 188.751 168.697 188.366 169.803 188.366C170.489 188.366 171.098 188.527 171.63 188.849C172.176 189.171 172.596 189.64 172.89 190.256H176.838C176.418 188.66 175.585 187.4 174.339 186.476C173.093 185.552 171.595 185.09 169.845 185.09C168.417 185.09 167.136 185.412 166.002 186.056C164.882 186.686 164.007 187.575 163.377 188.723ZM182.628 191.117V188.135H188.067V185.258H179.037V200H188.067V197.123H182.628V193.889H187.437V191.117H182.628Z" fill="white"/>
</g>
<defs>
<clipPath id="clip0_37_160">
<rect width="200" height="220" fill="white"/>
</clipPath>
<clipPath id="clip1_37_160">
<rect width="200" height="173" fill="white"/>
</clipPath>
</defs>
</svg>
