<svg width="200" height="220" viewBox="0 0 200 220" fill="none" xmlns="http://www.w3.org/2000/svg">
<g clip-path="url(#clip0_49_349)">
<g clip-path="url(#clip1_49_349)">
<path d="M8.66538 168L100 9.99113L191.335 168H102.309H8.66538Z" stroke="black" stroke-width="10"/>
<circle cx="100" cy="37" r="2" fill="black"/>
<path d="M36 145L43 157H36H29L36 145Z" fill="black"/>
<path d="M137.5 137L149 157H137.5H126L137.5 137Z" fill="black"/>
<path d="M62.5 137L74 157H62.5H51L62.5 137Z" fill="black"/>
<path d="M164 145L171 157H164H157L164 145Z" fill="black"/>
<circle cx="114" cy="65" r="2" fill="black"/>
<circle cx="86" cy="65" r="2" fill="black"/>
<circle cx="78" cy="79" r="2" fill="black"/>
<circle cx="122" cy="79" r="2" fill="black"/>
<path fill-rule="evenodd" clip-rule="evenodd" d="M100 61L120 95L104 125H96L80 95L100 61ZM100 95C96.134 95 93 91.866 93 88C93 84.134 96.134 81 100 81C103.866 81 107 84.134 107 88C107 91.866 103.866 95 100 95Z" fill="black"/>
<path d="M82.5 114L89 125H76L82.5 114Z" fill="black"/>
<path d="M117.5 114L124 125H111L117.5 114Z" fill="black"/>
<path fill-rule="evenodd" clip-rule="evenodd" d="M109.623 130H88.6876C88.1011 132.178 87.1432 133.837 86 134.576V136H113V134.902C111.555 134.465 110.324 132.603 109.623 130Z" fill="black"/>
<rect x="97" y="136" width="6" height="16" fill="black"/>
<rect x="108" y="136" width="5" height="9" fill="black"/>
<rect x="86" y="136" width="5" height="9" fill="black"/>
<path d="M86.0003 150L86.0003 145L91.0002 145L86.0003 150Z" fill="black"/>
<path d="M113 150L108 145L113 145L113 150Z" fill="black"/>
<circle cx="100" cy="152" r="3" fill="black"/>
<rect x="89" y="49" width="22" height="4" rx="2" fill="black"/>
<rect x="124" y="105" width="18" height="4" rx="2" fill="black"/>
<rect x="150" y="140" width="6" height="4" rx="2" fill="black"/>
<rect x="44" y="140" width="6" height="4" rx="2" fill="black"/>
<circle cx="131" cy="93" r="2" fill="black"/>
<circle cx="69" cy="93" r="2" fill="black"/>
<circle cx="60" cy="121" r="2" fill="black"/>
<circle cx="140" cy="121" r="2" fill="black"/>
<rect x="57" y="105" width="18" height="4" rx="2" fill="black"/>
<path d="M8.66538 168L100 9.99113L191.335 168H102.309H8.66538Z" stroke="black" stroke-width="10"/>
<circle cx="100" cy="37" r="2" fill="black"/>
<path d="M36 145L43 157H36H29L36 145Z" fill="black"/>
<path d="M137.5 137L149 157H137.5H126L137.5 137Z" fill="black"/>
<path d="M62.5 137L74 157H62.5H51L62.5 137Z" fill="black"/>
<path d="M164 145L171 157H164H157L164 145Z" fill="black"/>
<circle cx="114" cy="65" r="2" fill="black"/>
<circle cx="86" cy="65" r="2" fill="black"/>
<circle cx="78" cy="79" r="2" fill="black"/>
<circle cx="122" cy="79" r="2" fill="black"/>
<path fill-rule="evenodd" clip-rule="evenodd" d="M100 61L120 95L104 125H96L80 95L100 61ZM100 95C96.134 95 93 91.866 93 88C93 84.134 96.134 81 100 81C103.866 81 107 84.134 107 88C107 91.866 103.866 95 100 95Z" fill="black"/>
<path d="M82.5 114L89 125H76L82.5 114Z" fill="black"/>
<path d="M117.5 114L124 125H111L117.5 114Z" fill="black"/>
<path fill-rule="evenodd" clip-rule="evenodd" d="M109.623 130H88.6876C88.1011 132.178 87.1432 133.837 86 134.576V136H113V134.902C111.555 134.465 110.324 132.603 109.623 130Z" fill="black"/>
<rect x="97" y="136" width="6" height="16" fill="black"/>
<rect x="108" y="136" width="5" height="9" fill="black"/>
<rect x="86" y="136" width="5" height="9" fill="black"/>
<path d="M86.0003 150L86.0003 145L91.0002 145L86.0003 150Z" fill="black"/>
<path d="M113 150L108 145L113 145L113 150Z" fill="black"/>
<circle cx="100" cy="152" r="3" fill="black"/>
<rect x="89" y="49" width="22" height="4" rx="2" fill="black"/>
<rect x="124" y="105" width="18" height="4" rx="2" fill="black"/>
<rect x="150" y="140" width="6" height="4" rx="2" fill="black"/>
<rect x="44" y="140" width="6" height="4" rx="2" fill="black"/>
<circle cx="131" cy="93" r="2" fill="black"/>
<circle cx="69" cy="93" r="2" fill="black"/>
<circle cx="60" cy="121" r="2" fill="black"/>
<circle cx="140" cy="121" r="2" fill="black"/>
<rect x="57" y="105" width="18" height="4" rx="2" fill="black"/>
</g>
<path d="M0 173H200V210C200 215.523 195.523 220 190 220H10C4.47716 220 0 215.523 0 210V173Z" fill="black"/>
<path d="M32.4918 185.258L28.6488 200H24.3018L21.9498 190.298L19.5138 200H15.1668L11.4288 185.258H15.2718L17.3928 195.989L20.0178 185.258H23.9658L26.4858 195.989L28.6278 185.258H32.4918ZM37.8837 188.135V191.117H42.6927V193.889H37.8837V197.123H43.3227V200H34.2927V185.258H43.3227V188.135H37.8837ZM59.2812 197.396H53.7792L52.8972 200H49.1382L54.4722 185.258H58.6302L63.9642 200H60.1632L59.2812 197.396ZM58.3572 194.624L56.5302 189.227L54.7242 194.624H58.3572ZM73.1056 200L70.0396 194.435H69.1786V200H65.5876V185.258H71.6146C72.7766 185.258 73.7636 185.461 74.5756 185.867C75.4016 186.273 76.0176 186.833 76.4236 187.547C76.8296 188.247 77.0326 189.031 77.0326 189.899C77.0326 190.879 76.7526 191.754 76.1926 192.524C75.6466 193.294 74.8346 193.84 73.7566 194.162L77.1586 200H73.1056ZM69.1786 191.894H71.4046C72.0626 191.894 72.5526 191.733 72.8746 191.411C73.2106 191.089 73.3786 190.634 73.3786 190.046C73.3786 189.486 73.2106 189.045 72.8746 188.723C72.5526 188.401 72.0626 188.24 71.4046 188.24H69.1786V191.894ZM82.8779 188.135V191.117H87.6869V193.889H82.8779V197.123H88.3169V200H79.2869V185.258H88.3169V188.135H82.8779ZM98.6894 185.258V200H95.0984V185.258H98.6894ZM114.48 200H110.889L104.883 190.907V200H101.292V185.258H104.883L110.889 194.393V185.258H114.48V200ZM126.867 200.147C125.789 200.147 124.823 199.972 123.969 199.622C123.115 199.272 122.429 198.754 121.911 198.068C121.407 197.382 121.141 196.556 121.113 195.59H124.935C124.991 196.136 125.18 196.556 125.502 196.85C125.824 197.13 126.244 197.27 126.762 197.27C127.294 197.27 127.714 197.151 128.022 196.913C128.33 196.661 128.484 196.318 128.484 195.884C128.484 195.52 128.358 195.219 128.106 194.981C127.868 194.743 127.567 194.547 127.203 194.393C126.853 194.239 126.349 194.064 125.691 193.868C124.739 193.574 123.962 193.28 123.36 192.986C122.758 192.692 122.24 192.258 121.806 191.684C121.372 191.11 121.155 190.361 121.155 189.437C121.155 188.065 121.652 186.994 122.646 186.224C123.64 185.44 124.935 185.048 126.531 185.048C128.155 185.048 129.464 185.44 130.458 186.224C131.452 186.994 131.984 188.072 132.054 189.458H128.169C128.141 188.982 127.966 188.611 127.644 188.345C127.322 188.065 126.909 187.925 126.405 187.925C125.971 187.925 125.621 188.044 125.355 188.282C125.089 188.506 124.956 188.835 124.956 189.269C124.956 189.745 125.18 190.116 125.628 190.382C126.076 190.648 126.776 190.935 127.728 191.243C128.68 191.565 129.45 191.873 130.038 192.167C130.64 192.461 131.158 192.888 131.592 193.448C132.026 194.008 132.243 194.729 132.243 195.611C132.243 196.451 132.026 197.214 131.592 197.9C131.172 198.586 130.556 199.132 129.744 199.538C128.932 199.944 127.973 200.147 126.867 200.147ZM145.688 190.004C145.688 190.858 145.492 191.642 145.1 192.356C144.708 193.056 144.106 193.623 143.294 194.057C142.482 194.491 141.474 194.708 140.27 194.708H138.044V200H134.453V185.258H140.27C141.446 185.258 142.44 185.461 143.252 185.867C144.064 186.273 144.673 186.833 145.079 187.547C145.485 188.261 145.688 189.08 145.688 190.004ZM139.997 191.852C140.683 191.852 141.194 191.691 141.53 191.369C141.866 191.047 142.034 190.592 142.034 190.004C142.034 189.416 141.866 188.961 141.53 188.639C141.194 188.317 140.683 188.156 139.997 188.156H138.044V191.852H139.997ZM156.734 197.396H151.232L150.35 200H146.591L151.925 185.258H156.083L161.417 200H157.616L156.734 197.396ZM155.81 194.624L153.983 189.227L152.177 194.624H155.81ZM162.432 192.608C162.432 191.152 162.747 189.857 163.377 188.723C164.007 187.575 164.882 186.686 166.002 186.056C167.136 185.412 168.417 185.09 169.845 185.09C171.595 185.09 173.093 185.552 174.339 186.476C175.585 187.4 176.418 188.66 176.838 190.256H172.89C172.596 189.64 172.176 189.171 171.63 188.849C171.098 188.527 170.489 188.366 169.803 188.366C168.697 188.366 167.801 188.751 167.115 189.521C166.429 190.291 166.086 191.32 166.086 192.608C166.086 193.896 166.429 194.925 167.115 195.695C167.801 196.465 168.697 196.85 169.803 196.85C170.489 196.85 171.098 196.689 171.63 196.367C172.176 196.045 172.596 195.576 172.89 194.96H176.838C176.418 196.556 175.585 197.816 174.339 198.74C173.093 199.65 171.595 200.105 169.845 200.105C168.417 200.105 167.136 199.79 166.002 199.16C164.882 198.516 164.007 197.627 163.377 196.493C162.747 195.359 162.432 194.064 162.432 192.608ZM182.628 188.135V191.117H187.437V193.889H182.628V197.123H188.067V200H179.037V185.258H188.067V188.135H182.628Z" fill="white"/>
</g>
<defs>
<clipPath id="clip0_49_349">
<rect width="200" height="220" fill="white"/>
</clipPath>
<clipPath id="clip1_49_349">
<rect width="200" height="173" fill="white"/>
</clipPath>
</defs>
</svg>
