<svg width="200" height="173" viewBox="0 0 200 173" fill="none" xmlns="http://www.w3.org/2000/svg">
<g clip-path="url(#clip0_32_45)">
<path d="M8.66539 168L100 9.99112L191.335 168H102.309H8.66539Z" stroke="white" stroke-width="10"/>
<circle cx="100" cy="37" r="2" fill="white"/>
<path d="M36 145L43 157H36H29L36 145Z" fill="white"/>
<path d="M137.5 137L149 157H137.5H126L137.5 137Z" fill="white"/>
<path d="M62.5 137L74 157H62.5H51L62.5 137Z" fill="white"/>
<path d="M164 145L171 157H164H157L164 145Z" fill="white"/>
<circle cx="114" cy="65" r="2" fill="white"/>
<circle cx="86" cy="65" r="2" fill="white"/>
<circle cx="78" cy="79" r="2" fill="white"/>
<circle cx="122" cy="79" r="2" fill="white"/>
<path fill-rule="evenodd" clip-rule="evenodd" d="M100 61L120 95L104 125H96L80 95L100 61ZM100 95C96.134 95 93 91.866 93 88C93 84.134 96.134 81 100 81C103.866 81 107 84.134 107 88C107 91.866 103.866 95 100 95Z" fill="white"/>
<path d="M82.5 114L89 125H76L82.5 114Z" fill="white"/>
<path d="M117.5 114L124 125H111L117.5 114Z" fill="white"/>
<path fill-rule="evenodd" clip-rule="evenodd" d="M109.623 130H88.6876C88.1011 132.178 87.1432 133.837 86 134.576V136H113V134.902C111.555 134.465 110.324 132.603 109.623 130Z" fill="white"/>
<rect x="97" y="136" width="6" height="16" fill="white"/>
<rect x="108" y="136" width="5" height="9" fill="white"/>
<rect x="86" y="136" width="5" height="9" fill="white"/>
<path d="M86.0003 150L86.0003 145L91.0002 145L86.0003 150Z" fill="white"/>
<path d="M113 150L108 145L113 145L113 150Z" fill="white"/>
<circle cx="100" cy="152" r="3" fill="white"/>
<rect x="89" y="49" width="22" height="4" rx="2" fill="white"/>
<rect x="124" y="105" width="18" height="4" rx="2" fill="white"/>
<rect x="150" y="140" width="6" height="4" rx="2" fill="white"/>
<rect x="44" y="140" width="6" height="4" rx="2" fill="white"/>
<circle cx="131" cy="93" r="2" fill="white"/>
<circle cx="69" cy="93" r="2" fill="white"/>
<circle cx="60" cy="121" r="2" fill="white"/>
<circle cx="140" cy="121" r="2" fill="white"/>
<rect x="57" y="105" width="18" height="4" rx="2" fill="white"/>
<path d="M8.66539 168L100 9.99112L191.335 168H102.309H8.66539Z" stroke="white" stroke-width="10"/>
<circle cx="100" cy="37" r="2" fill="white"/>
<path d="M36 145L43 157H36H29L36 145Z" fill="white"/>
<path d="M137.5 137L149 157H137.5H126L137.5 137Z" fill="white"/>
<path d="M62.5 137L74 157H62.5H51L62.5 137Z" fill="white"/>
<path d="M164 145L171 157H164H157L164 145Z" fill="white"/>
<circle cx="114" cy="65" r="2" fill="white"/>
<circle cx="86" cy="65" r="2" fill="white"/>
<circle cx="78" cy="79" r="2" fill="white"/>
<circle cx="122" cy="79" r="2" fill="white"/>
<path fill-rule="evenodd" clip-rule="evenodd" d="M100 61L120 95L104 125H96L80 95L100 61ZM100 95C96.134 95 93 91.866 93 88C93 84.134 96.134 81 100 81C103.866 81 107 84.134 107 88C107 91.866 103.866 95 100 95Z" fill="white"/>
<path d="M82.5 114L89 125H76L82.5 114Z" fill="white"/>
<path d="M117.5 114L124 125H111L117.5 114Z" fill="white"/>
<path fill-rule="evenodd" clip-rule="evenodd" d="M109.623 130H88.6876C88.1011 132.178 87.1432 133.837 86 134.576V136H113V134.902C111.555 134.465 110.324 132.603 109.623 130Z" fill="white"/>
<rect x="97" y="136" width="6" height="16" fill="white"/>
<rect x="108" y="136" width="5" height="9" fill="white"/>
<rect x="86" y="136" width="5" height="9" fill="white"/>
<path d="M86.0003 150L86.0003 145L91.0002 145L86.0003 150Z" fill="white"/>
<path d="M113 150L108 145L113 145L113 150Z" fill="white"/>
<circle cx="100" cy="152" r="3" fill="white"/>
<rect x="89" y="49" width="22" height="4" rx="2" fill="white"/>
<rect x="124" y="105" width="18" height="4" rx="2" fill="white"/>
<rect x="150" y="140" width="6" height="4" rx="2" fill="white"/>
<rect x="44" y="140" width="6" height="4" rx="2" fill="white"/>
<circle cx="131" cy="93" r="2" fill="white"/>
<circle cx="69" cy="93" r="2" fill="white"/>
<circle cx="60" cy="121" r="2" fill="white"/>
<circle cx="140" cy="121" r="2" fill="white"/>
<rect x="57" y="105" width="18" height="4" rx="2" fill="white"/>
</g>
<defs>
<clipPath id="clip0_32_45">
<rect width="200" height="173" fill="white"/>
</clipPath>
</defs>
</svg>
