<svg width="894" height="200" viewBox="0 0 894 200" fill="none" xmlns="http://www.w3.org/2000/svg">
<path d="M316.16 72.16L300.56 128H287.36L276.88 88.24L265.92 128L252.8 128.08L237.76 72.16H249.76L259.6 115.52L270.96 72.16H283.44L294.16 115.28L304.08 72.16H316.16ZM364.673 104.88C364.673 106.48 364.566 107.92 364.353 109.2H331.953C332.22 112.4 333.34 114.907 335.313 116.72C337.286 118.533 339.713 119.44 342.593 119.44C346.753 119.44 349.713 117.653 351.473 114.08H363.553C362.273 118.347 359.82 121.867 356.193 124.64C352.566 127.36 348.113 128.72 342.833 128.72C338.566 128.72 334.726 127.787 331.313 125.92C327.953 124 325.313 121.307 323.393 117.84C321.526 114.373 320.593 110.373 320.593 105.84C320.593 101.253 321.526 97.2267 323.393 93.76C325.26 90.2933 327.873 87.6267 331.233 85.76C334.593 83.8933 338.46 82.96 342.833 82.96C347.046 82.96 350.806 83.8667 354.113 85.68C357.473 87.4933 360.06 90.08 361.873 93.44C363.74 96.7467 364.673 100.56 364.673 104.88ZM353.073 101.68C353.02 98.8 351.98 96.5067 349.953 94.8C347.926 93.04 345.446 92.16 342.513 92.16C339.74 92.16 337.393 93.0133 335.473 94.72C333.606 96.3733 332.46 98.6933 332.033 101.68H353.073ZM426.151 117.36H403.911L400.231 128H388.471L408.551 72.08H421.591L441.671 128H429.831L426.151 117.36ZM423.111 108.4L415.031 85.04L406.951 108.4H423.111ZM460.376 90.56C461.816 88.2133 463.683 86.3733 465.976 85.04C468.323 83.7067 470.99 83.04 473.976 83.04V94.8H471.016C467.496 94.8 464.83 95.6267 463.016 97.28C461.256 98.9333 460.376 101.813 460.376 105.92V128H449.176V83.68H460.376V90.56ZM522.72 104.88C522.72 106.48 522.613 107.92 522.4 109.2H490C490.267 112.4 491.387 114.907 493.36 116.72C495.333 118.533 497.76 119.44 500.64 119.44C504.8 119.44 507.76 117.653 509.52 114.08H521.6C520.32 118.347 517.867 121.867 514.24 124.64C510.613 127.36 506.16 128.72 500.88 128.72C496.613 128.72 492.773 127.787 489.36 125.92C486 124 483.36 121.307 481.44 117.84C479.573 114.373 478.64 110.373 478.64 105.84C478.64 101.253 479.573 97.2267 481.44 93.76C483.307 90.2933 485.92 87.6267 489.28 85.76C492.64 83.8933 496.507 82.96 500.88 82.96C505.093 82.96 508.853 83.8667 512.16 85.68C515.52 87.4933 518.107 90.08 519.92 93.44C521.787 96.7467 522.72 100.56 522.72 104.88ZM511.12 101.68C511.067 98.8 510.027 96.5067 508 94.8C505.973 93.04 503.493 92.16 500.56 92.16C497.787 92.16 495.44 93.0133 493.52 94.72C491.653 96.3733 490.507 98.6933 490.08 101.68H511.12ZM561.158 72.16V128H549.958V72.16H561.158ZM596.783 83.04C602.063 83.04 606.33 84.72 609.583 88.08C612.836 91.3867 614.463 96.0267 614.463 102V128H603.263V103.52C603.263 100 602.383 97.3067 600.623 95.44C598.863 93.52 596.463 92.56 593.423 92.56C590.33 92.56 587.876 93.52 586.063 95.44C584.303 97.3067 583.423 100 583.423 103.52V128H572.223V83.68H583.423V89.2C584.916 87.28 586.81 85.7867 589.103 84.72C591.45 83.6 594.01 83.04 596.783 83.04ZM663.456 128.56C659.563 128.56 656.043 127.893 652.896 126.56C649.803 125.227 647.35 123.307 645.536 120.8C643.723 118.293 642.79 115.333 642.736 111.92H654.736C654.896 114.213 655.696 116.027 657.136 117.36C658.63 118.693 660.656 119.36 663.216 119.36C665.83 119.36 667.883 118.747 669.376 117.52C670.87 116.24 671.616 114.587 671.616 112.56C671.616 110.907 671.11 109.547 670.096 108.48C669.083 107.413 667.803 106.587 666.256 106C664.763 105.36 662.683 104.667 660.016 103.92C656.39 102.853 653.43 101.813 651.136 100.8C648.896 99.7333 646.95 98.16 645.296 96.08C643.696 93.9467 642.896 91.12 642.896 87.6C642.896 84.2933 643.723 81.4133 645.376 78.96C647.03 76.5067 649.35 74.64 652.336 73.36C655.323 72.0267 658.736 71.36 662.576 71.36C668.336 71.36 673.003 72.7733 676.576 75.6C680.203 78.3733 682.203 82.2667 682.576 87.28H670.256C670.15 85.36 669.323 83.7867 667.776 82.56C666.283 81.28 664.283 80.64 661.776 80.64C659.59 80.64 657.83 81.2 656.496 82.32C655.216 83.44 654.576 85.0667 654.576 87.2C654.576 88.6933 655.056 89.9467 656.016 90.96C657.03 91.92 658.256 92.72 659.696 93.36C661.19 93.9467 663.27 94.64 665.936 95.44C669.563 96.5067 672.523 97.5733 674.816 98.64C677.11 99.7067 679.083 101.307 680.736 103.44C682.39 105.573 683.216 108.373 683.216 111.84C683.216 114.827 682.443 117.6 680.896 120.16C679.35 122.72 677.083 124.773 674.096 126.32C671.11 127.813 667.563 128.56 663.456 128.56ZM704.126 90.08C705.566 88.0533 707.54 86.3733 710.046 85.04C712.606 83.6533 715.513 82.96 718.766 82.96C722.553 82.96 725.966 83.8933 729.006 85.76C732.1 87.6267 734.526 90.2933 736.286 93.76C738.1 97.1733 739.006 101.147 739.006 105.68C739.006 110.213 738.1 114.24 736.286 117.76C734.526 121.227 732.1 123.92 729.006 125.84C725.966 127.76 722.553 128.72 718.766 128.72C715.513 128.72 712.633 128.053 710.126 126.72C707.673 125.387 705.673 123.707 704.126 121.68V149.12H692.926V83.68H704.126V90.08ZM727.566 105.68C727.566 103.013 727.006 100.72 725.886 98.8C724.82 96.8267 723.38 95.3333 721.566 94.32C719.806 93.3067 717.886 92.8 715.806 92.8C713.78 92.8 711.86 93.3333 710.046 94.4C708.286 95.4133 706.846 96.9067 705.726 98.88C704.66 100.853 704.126 103.173 704.126 105.84C704.126 108.507 704.66 110.827 705.726 112.8C706.846 114.773 708.286 116.293 710.046 117.36C711.86 118.373 713.78 118.88 715.806 118.88C717.886 118.88 719.806 118.347 721.566 117.28C723.38 116.213 724.82 114.693 725.886 112.72C727.006 110.747 727.566 108.4 727.566 105.68ZM744.265 105.68C744.265 101.2 745.145 97.2267 746.905 93.76C748.718 90.2933 751.145 87.6267 754.185 85.76C757.278 83.8933 760.718 82.96 764.505 82.96C767.812 82.96 770.692 83.6267 773.145 84.96C775.652 86.2933 777.652 87.9733 779.145 90V83.68H790.425V128H779.145V121.52C777.705 123.6 775.705 125.333 773.145 126.72C770.638 128.053 767.732 128.72 764.425 128.72C760.692 128.72 757.278 127.76 754.185 125.84C751.145 123.92 748.718 121.227 746.905 117.76C745.145 114.24 744.265 110.213 744.265 105.68ZM779.145 105.84C779.145 103.12 778.612 100.8 777.545 98.88C776.478 96.9067 775.038 95.4133 773.225 94.4C771.412 93.3333 769.465 92.8 767.385 92.8C765.305 92.8 763.385 93.3067 761.625 94.32C759.865 95.3333 758.425 96.8267 757.305 98.8C756.238 100.72 755.705 103.013 755.705 105.68C755.705 108.347 756.238 110.693 757.305 112.72C758.425 114.693 759.865 116.213 761.625 117.28C763.438 118.347 765.358 118.88 767.385 118.88C769.465 118.88 771.412 118.373 773.225 117.36C775.038 116.293 776.478 114.8 777.545 112.88C778.612 110.907 779.145 108.56 779.145 105.84ZM798.484 105.84C798.484 101.253 799.417 97.2533 801.284 93.84C803.15 90.3733 805.737 87.7067 809.044 85.84C812.35 83.92 816.137 82.96 820.404 82.96C825.897 82.96 830.43 84.3467 834.004 87.12C837.63 89.84 840.057 93.68 841.284 98.64H829.204C828.564 96.72 827.47 95.2267 825.924 94.16C824.43 93.04 822.564 92.48 820.324 92.48C817.124 92.48 814.59 93.6533 812.724 96C810.857 98.2933 809.924 101.573 809.924 105.84C809.924 110.053 810.857 113.333 812.724 115.68C814.59 117.973 817.124 119.12 820.324 119.12C824.857 119.12 827.817 117.093 829.204 113.04H841.284C840.057 117.84 837.63 121.653 834.004 124.48C830.377 127.307 825.844 128.72 820.404 128.72C816.137 128.72 812.35 127.787 809.044 125.92C805.737 124 803.15 121.333 801.284 117.92C799.417 114.453 798.484 110.427 798.484 105.84ZM890.689 104.88C890.689 106.48 890.582 107.92 890.369 109.2H857.969C858.235 112.4 859.355 114.907 861.329 116.72C863.302 118.533 865.729 119.44 868.609 119.44C872.769 119.44 875.729 117.653 877.489 114.08H889.569C888.289 118.347 885.835 121.867 882.209 124.64C878.582 127.36 874.129 128.72 868.849 128.72C864.582 128.72 860.742 127.787 857.329 125.92C853.969 124 851.329 121.307 849.409 117.84C847.542 114.373 846.609 110.373 846.609 105.84C846.609 101.253 847.542 97.2267 849.409 93.76C851.275 90.2933 853.889 87.6267 857.249 85.76C860.609 83.8933 864.475 82.96 868.849 82.96C873.062 82.96 876.822 83.8667 880.129 85.68C883.489 87.4933 886.075 90.08 887.889 93.44C889.755 96.7467 890.689 100.56 890.689 104.88ZM879.089 101.68C879.035 98.8 877.995 96.5067 875.969 94.8C873.942 93.04 871.462 92.16 868.529 92.16C865.755 92.16 863.409 93.0133 861.489 94.72C859.622 96.3733 858.475 98.6933 858.049 101.68H879.089Z" fill="white"/>
<g clip-path="url(#clip0_36_5)">
<path d="M8.66538 182L100 23.9911L191.335 182H102.309H8.66538Z" stroke="white" stroke-width="10"/>
<circle cx="100" cy="51" r="2" fill="white"/>
<path d="M36 159L43 171H36H29L36 159Z" fill="white"/>
<path d="M137.5 151L149 171H137.5H126L137.5 151Z" fill="white"/>
<path d="M62.5 151L74 171H62.5H51L62.5 151Z" fill="white"/>
<path d="M164 159L171 171H164H157L164 159Z" fill="white"/>
<circle cx="114" cy="79" r="2" fill="white"/>
<circle cx="86" cy="79" r="2" fill="white"/>
<circle cx="78" cy="93" r="2" fill="white"/>
<circle cx="122" cy="93" r="2" fill="white"/>
<path fill-rule="evenodd" clip-rule="evenodd" d="M100 75L120 109L104 139H96L80 109L100 75ZM100 109C96.134 109 93 105.866 93 102C93 98.134 96.134 95 100 95C103.866 95 107 98.134 107 102C107 105.866 103.866 109 100 109Z" fill="white"/>
<path d="M82.5 128L89 139H76L82.5 128Z" fill="white"/>
<path d="M117.5 128L124 139H111L117.5 128Z" fill="white"/>
<path fill-rule="evenodd" clip-rule="evenodd" d="M109.623 144H88.6876C88.1011 146.178 87.1432 147.837 86 148.576V150H113V148.902C111.555 148.465 110.324 146.603 109.623 144Z" fill="white"/>
<rect x="97" y="150" width="6" height="16" fill="white"/>
<rect x="108" y="150" width="5" height="9" fill="white"/>
<rect x="86" y="150" width="5" height="9" fill="white"/>
<path d="M86.0003 164L86.0003 159L91.0002 159L86.0003 164Z" fill="white"/>
<path d="M113 164L108 159L113 159L113 164Z" fill="white"/>
<circle cx="100" cy="166" r="3" fill="white"/>
<rect x="89" y="63" width="22" height="4" rx="2" fill="white"/>
<rect x="124" y="119" width="18" height="4" rx="2" fill="white"/>
<rect x="150" y="154" width="6" height="4" rx="2" fill="white"/>
<rect x="44" y="154" width="6" height="4" rx="2" fill="white"/>
<circle cx="131" cy="107" r="2" fill="white"/>
<circle cx="69" cy="107" r="2" fill="white"/>
<circle cx="60" cy="135" r="2" fill="white"/>
<circle cx="140" cy="135" r="2" fill="white"/>
<rect x="57" y="119" width="18" height="4" rx="2" fill="white"/>
<path d="M8.66538 182L100 23.9911L191.335 182H102.309H8.66538Z" stroke="white" stroke-width="10"/>
<circle cx="100" cy="51" r="2" fill="white"/>
<path d="M36 159L43 171H36H29L36 159Z" fill="white"/>
<path d="M137.5 151L149 171H137.5H126L137.5 151Z" fill="white"/>
<path d="M62.5 151L74 171H62.5H51L62.5 151Z" fill="white"/>
<path d="M164 159L171 171H164H157L164 159Z" fill="white"/>
<circle cx="114" cy="79" r="2" fill="white"/>
<circle cx="86" cy="79" r="2" fill="white"/>
<circle cx="78" cy="93" r="2" fill="white"/>
<circle cx="122" cy="93" r="2" fill="white"/>
<path fill-rule="evenodd" clip-rule="evenodd" d="M100 75L120 109L104 139H96L80 109L100 75ZM100 109C96.134 109 93 105.866 93 102C93 98.134 96.134 95 100 95C103.866 95 107 98.134 107 102C107 105.866 103.866 109 100 109Z" fill="white"/>
<path d="M82.5 128L89 139H76L82.5 128Z" fill="white"/>
<path d="M117.5 128L124 139H111L117.5 128Z" fill="white"/>
<path fill-rule="evenodd" clip-rule="evenodd" d="M109.623 144H88.6876C88.1011 146.178 87.1432 147.837 86 148.576V150H113V148.902C111.555 148.465 110.324 146.603 109.623 144Z" fill="white"/>
<rect x="97" y="150" width="6" height="16" fill="white"/>
<rect x="108" y="150" width="5" height="9" fill="white"/>
<rect x="86" y="150" width="5" height="9" fill="white"/>
<path d="M86.0003 164L86.0003 159L91.0002 159L86.0003 164Z" fill="white"/>
<path d="M113 164L108 159L113 159L113 164Z" fill="white"/>
<circle cx="100" cy="166" r="3" fill="white"/>
<rect x="89" y="63" width="22" height="4" rx="2" fill="white"/>
<rect x="124" y="119" width="18" height="4" rx="2" fill="white"/>
<rect x="150" y="154" width="6" height="4" rx="2" fill="white"/>
<rect x="44" y="154" width="6" height="4" rx="2" fill="white"/>
<circle cx="131" cy="107" r="2" fill="white"/>
<circle cx="69" cy="107" r="2" fill="white"/>
<circle cx="60" cy="135" r="2" fill="white"/>
<circle cx="140" cy="135" r="2" fill="white"/>
<rect x="57" y="119" width="18" height="4" rx="2" fill="white"/>
</g>
<defs>
<clipPath id="clip0_36_5">
<rect width="200" height="173" fill="white" transform="translate(0 14)"/>
</clipPath>
</defs>
</svg>
