<svg width="520" height="200" viewBox="0 0 520 200" fill="none" xmlns="http://www.w3.org/2000/svg">
<path d="M465.213 15.1493C467.439 6.24594 475.438 0 484.616 0H519L469 200H419L465.213 15.1493Z" fill="black"/>
<path d="M100 100V200H50H0L100 100Z" fill="black"/>
<path d="M100 0V100H50H0L100 0Z" fill="black"/>
<path d="M139 0H239V200H139V0Z" fill="black"/>
<path d="M494 0H519V200H494V0Z" fill="black"/>
<path d="M279 0H304V200H279V0Z" fill="black"/>
<circle cx="431.5" cy="12.5" r="12.5" fill="black"/>
<path d="M279 0H313.384C322.562 0 330.561 6.24595 332.787 15.1493L379 200H329L279 0Z" fill="black"/>
<path d="M279 0H359C370.046 0 379 8.95431 379 20V55C379 66.0457 370.046 75 359 75H279V0Z" fill="black"/>
</svg>
