<svg width="520" height="200" viewBox="0 0 520 200" fill="none" xmlns="http://www.w3.org/2000/svg">
<g clip-path="url(#clip0_107_56)">
<path d="M466.213 15.1493C468.439 6.24594 476.438 0 485.616 0H520L470 200H420L466.213 15.1493Z" fill="black"/>
<path d="M100 100V200H50H0L100 100Z" fill="black"/>
<path d="M100 0V100H50H0L100 0Z" fill="black"/>
<path d="M140 0H240V200H140V0Z" fill="black"/>
<path d="M495 0H520V200H495V0Z" fill="black"/>
<path d="M280 0H360C371.046 0 380 8.95431 380 20V50H280V0Z" fill="black"/>
<path d="M280 50H355V200H280V50Z" fill="black"/>
<circle cx="432.5" cy="12.5" r="12.5" fill="black"/>
</g>
<defs>
<clipPath id="clip0_107_56">
<rect width="520" height="200" fill="white"/>
</clipPath>
</defs>
</svg>
